<svg width="800" height="520" viewBox="0 0 800 520" fill="none" xmlns="http://www.w3.org/2000/svg">
  <defs>
    <linearGradient id="sky" x1="0" y1="0" x2="800" y2="520" gradientUnits="userSpaceOnUse">
      <stop stop-color="#F6FAFF"/>
      <stop offset="1" stop-color="#E8F1FF"/>
    </linearGradient>
    <linearGradient id="wall" x1="0" y1="0" x2="1" y2="1">
      <stop stop-color="#FFE8CC"/>
      <stop offset="1" stop-color="#FAD7B0"/>
    </linearGradient>
    <linearGradient id="roof" x1="0" y1="0" x2="1" y2="0">
      <stop stop-color="#F25F5C"/>
      <stop offset="1" stop-color="#E24843"/>
    </linearGradient>
  </defs>
  <rect width="800" height="520" rx="36" fill="url(#sky)"/>
  <circle cx="110" cy="110" r="42" fill="#FFD166"/>
  <path d="M0 420C130 380 250 420 380 400C520 380 620 320 800 340V520H0V420Z" fill="#D9F2E6"/>
  <rect x="150" y="190" width="500" height="240" rx="28" fill="url(#wall)" stroke="#F2C79C" stroke-width="4"/>
  <path d="M120 200L220 120H580L680 200H120Z" fill="url(#roof)"/>
  <rect x="200" y="240" width="160" height="140" rx="16" fill="#FFF4E6" stroke="#F2C79C" stroke-width="3"/>
  <rect x="400" y="240" width="200" height="90" rx="16" fill="#FFF4E6" stroke="#F2C79C" stroke-width="3"/>
  <rect x="400" y="345" width="200" height="35" rx="12" fill="#FDEBD5" stroke="#F2C79C" stroke-width="3"/>
  <rect x="230" y="270" width="100" height="80" rx="10" fill="#E3F2FF"/>
  <rect x="430" y="265" width="140" height="16" rx="8" fill="#E3F2FF"/>
  <rect x="430" y="290" width="110" height="14" rx="7" fill="#E3F2FF"/>
  <rect x="165" y="210" width="470" height="30" rx="15" fill="#1F7AE0"/>
  <text x="240" y="231" fill="#FFFFFF" font-family="Verdana, sans-serif" font-size="16" letter-spacing="3">KIBANDA MART</text>
  <rect x="180" y="400" width="440" height="18" rx="9" fill="#CBE3FF"/>
  <circle cx="620" cy="420" r="26" fill="#2EC4B6"/>
  <rect x="610" y="402" width="18" height="36" rx="6" fill="#FFFFFF" fill-opacity="0.85"/>
</svg>
